<svg width="104" height="47" viewBox="0 0 104 47" fill="none" xmlns="http://www.w3.org/2000/svg">
<path d="M0.562012 18.2349L9.56201 37.2349L53.5948 40.0981L77.7397 22.8517L61.7868 20.2647L58.3375 15.9531L30.4168 7.79614L0.562012 18.2349Z" fill="#131313" stroke="#131313" stroke-width="0.235077"/>
<mask id="path-2-outside-1_15611_99" maskUnits="userSpaceOnUse" x="7.66895" y="20.4507" width="73" height="23" fill="black">
<rect fill="white" x="7.66895" y="20.4507" width="73" height="23"/>
<path d="M19.4853 39.699C15.0771 39.699 11.7451 36.367 11.7451 32.2072C11.7451 28.0473 15.0771 24.7153 19.4853 24.7153C22.4448 24.7153 24.473 26.2468 25.5078 27.4886L23.7279 29.02C22.9001 28.1301 21.6584 27.0747 19.4853 27.0747C16.6293 27.0747 14.3528 29.3512 14.3528 32.2072C14.3528 35.0632 16.6293 37.3397 19.4853 37.3397C21.2445 37.3397 22.6311 36.5326 23.1898 35.9117V33.8628H20.1476V31.7105H25.7561V36.9051C24.8248 38.1055 22.4448 39.699 19.4853 39.699ZM38.5257 39.4507H29.0264V24.9637H31.6133V37.0707H38.5257V39.4507ZM47.1335 39.699C42.7253 39.699 39.3933 36.367 39.3933 32.2072C39.3933 28.0473 42.7253 24.7153 47.1335 24.7153C51.5417 24.7153 54.8737 28.0473 54.8737 32.2072C54.8737 36.367 51.5417 39.699 47.1335 39.699ZM47.1335 37.3397C49.9895 37.3397 52.266 35.0632 52.266 32.2072C52.266 29.3512 49.9895 27.0747 47.1335 27.0747C44.2775 27.0747 42.001 29.3512 42.001 32.2072C42.001 35.0632 44.2775 37.3397 47.1335 37.3397ZM63.1112 39.4507H60.6691L55.9091 24.9637H58.6409L61.9523 35.3943H62.0143L65.2843 24.9637H67.7264L70.9963 35.3943H71.0584L74.349 24.9637H77.0187L72.2587 39.4507H69.7959L66.4846 28.8752H66.4432L63.1112 39.4507Z"/>
</mask>
<path d="M19.4853 39.699C15.0771 39.699 11.7451 36.367 11.7451 32.2072C11.7451 28.0473 15.0771 24.7153 19.4853 24.7153C22.4448 24.7153 24.473 26.2468 25.5078 27.4886L23.7279 29.02C22.9001 28.1301 21.6584 27.0747 19.4853 27.0747C16.6293 27.0747 14.3528 29.3512 14.3528 32.2072C14.3528 35.0632 16.6293 37.3397 19.4853 37.3397C21.2445 37.3397 22.6311 36.5326 23.1898 35.9117V33.8628H20.1476V31.7105H25.7561V36.9051C24.8248 38.1055 22.4448 39.699 19.4853 39.699ZM38.5257 39.4507H29.0264V24.9637H31.6133V37.0707H38.5257V39.4507ZM47.1335 39.699C42.7253 39.699 39.3933 36.367 39.3933 32.2072C39.3933 28.0473 42.7253 24.7153 47.1335 24.7153C51.5417 24.7153 54.8737 28.0473 54.8737 32.2072C54.8737 36.367 51.5417 39.699 47.1335 39.699ZM47.1335 37.3397C49.9895 37.3397 52.266 35.0632 52.266 32.2072C52.266 29.3512 49.9895 27.0747 47.1335 27.0747C44.2775 27.0747 42.001 29.3512 42.001 32.2072C42.001 35.0632 44.2775 37.3397 47.1335 37.3397ZM63.1112 39.4507H60.6691L55.9091 24.9637H58.6409L61.9523 35.3943H62.0143L65.2843 24.9637H67.7264L70.9963 35.3943H71.0584L74.349 24.9637H77.0187L72.2587 39.4507H69.7959L66.4846 28.8752H66.4432L63.1112 39.4507Z" fill="white"/>
<path d="M25.5078 27.4886L27.8077 30.1614C29.2674 28.9054 29.4495 26.7106 28.2166 25.2312L25.5078 27.4886ZM23.7279 29.02L21.1461 31.4217C22.4364 32.8087 24.5919 32.9285 26.0278 31.6929L23.7279 29.02ZM23.1898 35.9117L25.8108 38.2706C26.3936 37.6231 26.716 36.7828 26.716 35.9117H23.1898ZM23.1898 33.8628H26.716C26.716 31.9154 25.1373 30.3367 23.1898 30.3367V33.8628ZM20.1476 33.8628H16.6214C16.6214 35.8103 18.2001 37.389 20.1476 37.389V33.8628ZM20.1476 31.7105V28.1843C18.2001 28.1843 16.6214 29.763 16.6214 31.7105H20.1476ZM25.7561 31.7105H29.2823C29.2823 29.763 27.7036 28.1843 25.7561 28.1843V31.7105ZM25.7561 36.9051L28.5421 39.0666C29.0219 38.4482 29.2823 37.6878 29.2823 36.9051H25.7561ZM19.4853 39.699V36.1729C16.9487 36.1729 15.2713 34.3446 15.2713 32.2072H11.7451H8.21897C8.21897 38.3894 13.2055 43.2252 19.4853 43.2252V39.699ZM11.7451 32.2072H15.2713C15.2713 30.0698 16.9487 28.2415 19.4853 28.2415V24.7153V21.1892C13.2055 21.1892 8.21897 26.0249 8.21897 32.2072H11.7451ZM19.4853 24.7153V28.2415C21.1389 28.2415 22.248 29.0849 22.7989 29.746L25.5078 27.4886L28.2166 25.2312C26.6979 23.4087 23.7507 21.1892 19.4853 21.1892V24.7153ZM25.5078 27.4886L23.2079 24.8157L21.428 26.3472L23.7279 29.02L26.0278 31.6929L27.8077 30.1614L25.5078 27.4886ZM23.7279 29.02L26.3097 26.6184C25.1608 25.3833 23.0507 23.5485 19.4853 23.5485V27.0747V30.6008C19.9632 30.6008 20.2367 30.7075 20.4185 30.807C20.6338 30.9248 20.8537 31.1073 21.1461 31.4217L23.7279 29.02ZM19.4853 27.0747V23.5485C14.6819 23.5485 10.8266 27.4037 10.8266 32.2072H14.3528H17.8789C17.8789 31.2986 18.5768 30.6008 19.4853 30.6008V27.0747ZM14.3528 32.2072H10.8266C10.8266 37.0106 14.6819 40.8659 19.4853 40.8659V37.3397V33.8136C18.5768 33.8136 17.8789 33.1158 17.8789 32.2072H14.3528ZM19.4853 37.3397V40.8659C22.2166 40.8659 24.5652 39.6546 25.8108 38.2706L23.1898 35.9117L20.5689 33.5528C20.647 33.466 20.6748 33.4566 20.6193 33.495C20.5721 33.5276 20.4881 33.5781 20.3702 33.6298C20.1321 33.7344 19.8265 33.8136 19.4853 33.8136V37.3397ZM23.1898 35.9117H26.716V33.8628H23.1898H19.6637V35.9117H23.1898ZM23.1898 33.8628V30.3367H20.1476V33.8628V37.389H23.1898V33.8628ZM20.1476 33.8628H23.6737V31.7105H20.1476H16.6214V33.8628H20.1476ZM20.1476 31.7105V35.2366H25.7561V31.7105V28.1843H20.1476V31.7105ZM25.7561 31.7105H22.23V36.9051H25.7561H29.2823V31.7105H25.7561ZM25.7561 36.9051L22.9702 34.7436C22.8766 34.8642 22.486 35.2525 21.7863 35.6074C21.1232 35.9437 20.3314 36.1729 19.4853 36.1729V39.699V43.2252C23.6061 43.2252 26.9881 41.0696 28.5421 39.0666L25.7561 36.9051ZM38.5257 39.4507V42.9768C40.4731 42.9768 42.0518 41.3981 42.0518 39.4507H38.5257ZM29.0264 39.4507H25.5002C25.5002 41.3981 27.0789 42.9768 29.0264 42.9768V39.4507ZM29.0264 24.9637V21.4375C27.0789 21.4375 25.5002 23.0162 25.5002 24.9637H29.0264ZM31.6133 24.9637H35.1395C35.1395 23.0162 33.5608 21.4375 31.6133 21.4375V24.9637ZM31.6133 37.0707H28.0872C28.0872 39.0181 29.6659 40.5968 31.6133 40.5968V37.0707ZM38.5257 37.0707H42.0518C42.0518 35.1232 40.4731 33.5445 38.5257 33.5445V37.0707ZM38.5257 39.4507V35.9245H29.0264V39.4507V42.9768H38.5257V39.4507ZM29.0264 39.4507H32.5525V24.9637H29.0264H25.5002V39.4507H29.0264ZM29.0264 24.9637V28.4898H31.6133V24.9637V21.4375H29.0264V24.9637ZM31.6133 24.9637H28.0872V37.0707H31.6133H35.1395V24.9637H31.6133ZM31.6133 37.0707V40.5968H38.5257V37.0707V33.5445H31.6133V37.0707ZM38.5257 37.0707H34.9995V39.4507H38.5257H42.0518V37.0707H38.5257ZM47.1335 39.699V36.1729C44.5969 36.1729 42.9194 34.3446 42.9194 32.2072H39.3933H35.8671C35.8671 38.3894 40.8537 43.2252 47.1335 43.2252V39.699ZM39.3933 32.2072H42.9194C42.9194 30.0698 44.5969 28.2415 47.1335 28.2415V24.7153V21.1892C40.8537 21.1892 35.8671 26.0249 35.8671 32.2072H39.3933ZM47.1335 24.7153V28.2415C49.6701 28.2415 51.3475 30.0698 51.3475 32.2072H54.8737H58.3998C58.3998 26.0249 53.4133 21.1892 47.1335 21.1892V24.7153ZM54.8737 32.2072H51.3475C51.3475 34.3446 49.6701 36.1729 47.1335 36.1729V39.699V43.2252C53.4133 43.2252 58.3998 38.3894 58.3998 32.2072H54.8737ZM47.1335 37.3397V40.8659C51.9369 40.8659 55.7922 37.0106 55.7922 32.2072H52.266H48.7399C48.7399 33.1158 48.0421 33.8136 47.1335 33.8136V37.3397ZM52.266 32.2072H55.7922C55.7922 27.4037 51.9369 23.5485 47.1335 23.5485V27.0747V30.6008C48.0421 30.6008 48.7399 31.2986 48.7399 32.2072H52.266ZM47.1335 27.0747V23.5485C42.33 23.5485 38.4748 27.4037 38.4748 32.2072H42.001H45.5271C45.5271 31.2986 46.2249 30.6008 47.1335 30.6008V27.0747ZM42.001 32.2072H38.4748C38.4748 37.0106 42.33 40.8659 47.1335 40.8659V37.3397V33.8136C46.2249 33.8136 45.5271 33.1158 45.5271 32.2072H42.001ZM63.1112 39.4507V42.9768C64.6505 42.9768 66.0118 41.9784 66.4744 40.5103L63.1112 39.4507ZM60.6691 39.4507L57.3192 40.5514C57.7947 41.9986 59.1458 42.9768 60.6691 42.9768V39.4507ZM55.9091 24.9637V21.4375C54.7783 21.4375 53.7161 21.9799 53.053 22.8958C52.3898 23.8117 52.2062 24.9901 52.5591 26.0644L55.9091 24.9637ZM58.6409 24.9637L62.0018 23.8967C61.5369 22.4324 60.1774 21.4375 58.6409 21.4375V24.9637ZM61.9523 35.3943L58.5914 36.4613C59.0563 37.9257 60.4158 38.9205 61.9523 38.9205V35.3943ZM62.0143 35.3943V38.9205C63.5555 38.9205 64.918 37.9197 65.379 36.4491L62.0143 35.3943ZM65.2843 24.9637V21.4375C63.7432 21.4375 62.3806 22.4383 61.9196 23.9089L65.2843 24.9637ZM67.7264 24.9637L71.0911 23.9089C70.63 22.4383 69.2675 21.4375 67.7264 21.4375V24.9637ZM70.9963 35.3943L67.6316 36.4491C68.0926 37.9197 69.4552 38.9205 70.9963 38.9205V35.3943ZM71.0584 35.3943V38.9205C72.5971 38.9205 73.9582 37.9227 74.4212 36.4552L71.0584 35.3943ZM74.349 24.9637V21.4375C72.8102 21.4375 71.4492 22.4353 70.9862 23.9028L74.349 24.9637ZM77.0187 24.9637L80.3687 26.0644C80.7217 24.9901 80.538 23.8117 79.8749 22.8958C79.2117 21.9799 78.1495 21.4375 77.0187 21.4375V24.9637ZM72.2587 39.4507V42.9768C73.7821 42.9768 75.1332 41.9986 75.6087 40.5514L72.2587 39.4507ZM69.7959 39.4507L66.4309 40.5043C66.8915 41.9755 68.2544 42.9768 69.7959 42.9768V39.4507ZM66.4846 28.8752L69.8497 27.8215C69.389 26.3504 68.0262 25.349 66.4846 25.349V28.8752ZM66.4432 28.8752V25.349C64.904 25.349 63.5426 26.3474 63.08 27.8155L66.4432 28.8752ZM63.1112 39.4507V35.9245H60.6691V39.4507V42.9768H63.1112V39.4507ZM60.6691 39.4507L64.0191 38.35L59.2591 23.863L55.9091 24.9637L52.5591 26.0644L57.3192 40.5514L60.6691 39.4507ZM55.9091 24.9637V28.4898H58.6409V24.9637V21.4375H55.9091V24.9637ZM58.6409 24.9637L55.2801 26.0306L58.5914 36.4613L61.9523 35.3943L65.3131 34.3274L62.0018 23.8967L58.6409 24.9637ZM61.9523 35.3943V38.9205H62.0143V35.3943V31.8682H61.9523V35.3943ZM62.0143 35.3943L65.379 36.4491L68.649 26.0185L65.2843 24.9637L61.9196 23.9089L58.6496 34.3395L62.0143 35.3943ZM65.2843 24.9637V28.4898H67.7264V24.9637V21.4375H65.2843V24.9637ZM67.7264 24.9637L64.3617 26.0185L67.6316 36.4491L70.9963 35.3943L74.361 34.3395L71.0911 23.9089L67.7264 24.9637ZM70.9963 35.3943V38.9205H71.0584V35.3943V31.8682H70.9963V35.3943ZM71.0584 35.3943L74.4212 36.4552L77.7118 26.0246L74.349 24.9637L70.9862 23.9028L67.6956 34.3334L71.0584 35.3943ZM74.349 24.9637V28.4898H77.0187V24.9637V21.4375H74.349V24.9637ZM77.0187 24.9637L73.6688 23.863L68.9088 38.35L72.2587 39.4507L75.6087 40.5514L80.3687 26.0644L77.0187 24.9637ZM72.2587 39.4507V35.9245H69.7959V39.4507V42.9768H72.2587V39.4507ZM69.7959 39.4507L73.161 38.397L69.8497 27.8215L66.4846 28.8752L63.1196 29.9288L66.4309 40.5043L69.7959 39.4507ZM66.4846 28.8752V25.349H66.4432V28.8752V32.4013H66.4846V28.8752ZM66.4432 28.8752L63.08 27.8155L59.748 38.3911L63.1112 39.4507L66.4744 40.5103L69.8064 29.9348L66.4432 28.8752Z" fill="#131313" mask="url(#path-2-outside-1_15611_99)"/>
<mask id="path-4-outside-2_15611_99" maskUnits="userSpaceOnUse" x="-0.322266" y="0" width="61" height="23" fill="black">
<rect fill="white" x="-0.322266" width="61" height="23"/>
<path d="M8.86575 19.2483C6.196 19.2483 4.37478 18.0273 3.52626 16.9718L5.22331 15.3369C5.90626 16.0612 7.06522 16.9097 8.78297 16.9097C10.5214 16.9097 11.4734 15.9577 11.4734 14.9229C11.4734 11.9635 4.00226 13.6605 4.00226 8.3831C4.00226 6.10657 5.96835 4.26466 9.03132 4.26466C11.3078 4.26466 12.9635 5.34083 13.7292 6.18936L12.0529 7.84501C11.4941 7.32762 10.4593 6.58258 9.1141 6.58258C7.47914 6.58258 6.65131 7.4311 6.65131 8.3831C6.65131 11.3426 14.1018 9.64554 14.1018 14.9229C14.1018 17.2409 12.115 19.2483 8.86575 19.2483ZM22.1699 19H19.5829V6.89301H15.2989V4.51301H26.4539V6.89301H22.1699V19ZM35.282 19.2483C30.8739 19.2483 27.5418 15.9163 27.5418 11.7565C27.5418 7.59667 30.8739 4.26466 35.282 4.26466C39.6902 4.26466 43.0222 7.59667 43.0222 11.7565C43.0222 15.9163 39.6902 19.2483 35.282 19.2483ZM35.282 16.889C38.138 16.889 40.4146 14.6125 40.4146 11.7565C40.4146 8.9005 38.138 6.62397 35.282 6.62397C32.426 6.62397 30.1495 8.9005 30.1495 11.7565C30.1495 14.6125 32.426 16.889 35.282 16.889ZM48.6631 19H46.0761V4.51301H52.0158C54.8925 4.51301 56.9828 6.60327 56.9828 9.25232C56.9828 11.9014 54.8925 13.9709 52.0158 13.9709H48.6631V19ZM48.6631 6.85162V11.6323H51.9744C53.3196 11.6323 54.3958 10.5768 54.3958 9.25232C54.3958 7.9071 53.3196 6.85162 51.9744 6.85162H48.6631Z"/>
</mask>
<path d="M8.86575 19.2483C6.196 19.2483 4.37478 18.0273 3.52626 16.9718L5.22331 15.3369C5.90626 16.0612 7.06522 16.9097 8.78297 16.9097C10.5214 16.9097 11.4734 15.9577 11.4734 14.9229C11.4734 11.9635 4.00226 13.6605 4.00226 8.3831C4.00226 6.10657 5.96835 4.26466 9.03132 4.26466C11.3078 4.26466 12.9635 5.34083 13.7292 6.18936L12.0529 7.84501C11.4941 7.32762 10.4593 6.58258 9.1141 6.58258C7.47914 6.58258 6.65131 7.4311 6.65131 8.3831C6.65131 11.3426 14.1018 9.64554 14.1018 14.9229C14.1018 17.2409 12.115 19.2483 8.86575 19.2483ZM22.1699 19H19.5829V6.89301H15.2989V4.51301H26.4539V6.89301H22.1699V19ZM35.282 19.2483C30.8739 19.2483 27.5418 15.9163 27.5418 11.7565C27.5418 7.59667 30.8739 4.26466 35.282 4.26466C39.6902 4.26466 43.0222 7.59667 43.0222 11.7565C43.0222 15.9163 39.6902 19.2483 35.282 19.2483ZM35.282 16.889C38.138 16.889 40.4146 14.6125 40.4146 11.7565C40.4146 8.9005 38.138 6.62397 35.282 6.62397C32.426 6.62397 30.1495 8.9005 30.1495 11.7565C30.1495 14.6125 32.426 16.889 35.282 16.889ZM48.6631 19H46.0761V4.51301H52.0158C54.8925 4.51301 56.9828 6.60327 56.9828 9.25232C56.9828 11.9014 54.8925 13.9709 52.0158 13.9709H48.6631V19ZM48.6631 6.85162V11.6323H51.9744C53.3196 11.6323 54.3958 10.5768 54.3958 9.25232C54.3958 7.9071 53.3196 6.85162 51.9744 6.85162H48.6631Z" fill="white"/>
<path d="M3.52626 16.9718L1.07977 14.4324C-0.234599 15.6987 -0.365483 17.7587 0.778058 19.1812L3.52626 16.9718ZM5.22331 15.3369L7.7889 12.9179C7.14283 12.2326 6.24949 11.8343 5.30799 11.8117C4.36648 11.7891 3.45505 12.1441 2.77682 12.7975L5.22331 15.3369ZM13.7292 6.18936L16.2071 8.69817C17.5487 7.37306 17.6104 5.22691 16.347 3.82696L13.7292 6.18936ZM12.0529 7.84501L9.65719 10.4324C11.0412 11.7139 13.1887 11.6793 14.5307 10.3538L12.0529 7.84501ZM8.86575 19.2483V15.7222C7.30315 15.7222 6.47843 15.0162 6.27446 14.7625L3.52626 16.9718L0.778058 19.1812C2.27113 21.0384 5.08886 22.7745 8.86575 22.7745V19.2483ZM3.52626 16.9718L5.97274 19.5112L7.66979 17.8762L5.22331 15.3369L2.77682 12.7975L1.07977 14.4324L3.52626 16.9718ZM5.22331 15.3369L2.65771 17.7558C3.75461 18.9192 5.77906 20.4359 8.78297 20.4359V16.9097V13.3836C8.52953 13.3836 8.35882 13.3264 8.22497 13.2577C8.07279 13.1796 7.92482 13.062 7.7889 12.9179L5.22331 15.3369ZM8.78297 16.9097V20.4359C11.7243 20.4359 14.9996 18.5744 14.9996 14.9229H11.4734H7.94725C7.94725 14.3005 8.25075 13.8144 8.56594 13.5601C8.8614 13.3217 9.02125 13.3836 8.78297 13.3836V16.9097ZM11.4734 14.9229H14.9996C14.9996 13.7261 14.5926 12.636 13.8702 11.7621C13.2162 10.971 12.4264 10.504 11.8442 10.2217C10.8536 9.74151 9.37266 9.34536 8.82499 9.16786C7.95832 8.88698 7.63904 8.69352 7.52623 8.59216C7.50715 8.57503 7.53239 8.59589 7.55099 8.63818C7.56784 8.67647 7.52842 8.61821 7.52842 8.3831H4.00226H0.476104C0.476104 10.6771 1.34906 12.5229 2.81303 13.8382C4.10105 14.9954 5.64956 15.5522 6.65068 15.8766C7.9708 16.3045 8.35762 16.3688 8.76789 16.5677C8.88607 16.625 8.67994 16.5521 8.43457 16.2553C8.12075 15.8757 7.94725 15.38 7.94725 14.9229H11.4734ZM4.00226 8.3831H7.52842C7.52842 8.31754 7.53624 8.25544 7.65511 8.15415C7.79455 8.03534 8.20116 7.79081 9.03132 7.79081V4.26466V0.738502C4.5714 0.738502 0.476104 3.65086 0.476104 8.3831H4.00226ZM9.03132 4.26466V7.79081C10.1949 7.79081 10.9332 8.35425 11.1114 8.55176L13.7292 6.18936L16.347 3.82696C14.9938 2.32741 12.4208 0.738502 9.03132 0.738502V4.26466ZM13.7292 6.18936L11.2514 3.68055L9.57506 5.33621L12.0529 7.84501L14.5307 10.3538L16.2071 8.69817L13.7292 6.18936ZM12.0529 7.84501L14.4486 5.25766C13.629 4.4988 11.766 3.05642 9.1141 3.05642V6.58258V10.1087C9.12226 10.1087 9.17383 10.1092 9.28836 10.1671C9.41249 10.2298 9.54375 10.3273 9.65719 10.4324L12.0529 7.84501ZM9.1141 6.58258V3.05642C7.7084 3.05642 6.2462 3.42292 5.05841 4.37913C3.83082 5.36738 3.12515 6.82034 3.12515 8.3831H6.65131H10.1775C10.1775 8.99386 9.88572 9.54656 9.48078 9.87255C9.11564 10.1665 8.88483 10.1087 9.1141 10.1087V6.58258ZM6.65131 8.3831H3.12515C3.12515 9.57732 3.52999 10.6661 4.25058 11.5403C4.90323 12.332 5.69194 12.7998 6.27383 13.0827C7.26289 13.5635 8.74226 13.9604 9.28665 14.1373C10.1501 14.4179 10.4664 14.6106 10.5774 14.7106C10.5958 14.7272 10.5707 14.7062 10.5525 14.6646C10.536 14.6271 10.5756 14.6866 10.5756 14.9229H14.1018H17.6279C17.6279 12.6324 16.7589 10.7874 15.2978 9.4711C14.0119 8.31255 12.4656 7.75503 11.4664 7.43031C10.1482 7.00189 9.76496 6.93833 9.35705 6.74004C9.24047 6.68337 9.44711 6.75698 9.69231 7.05444C10.0055 7.43431 10.1775 7.92876 10.1775 8.3831H6.65131ZM14.1018 14.9229H10.5756C10.5756 15.0331 10.5422 15.1592 10.3775 15.3035C10.2063 15.4536 9.76053 15.7222 8.86575 15.7222V19.2483V22.7745C13.6126 22.7745 17.6279 19.6096 17.6279 14.9229H14.1018ZM22.1699 19V22.5262C24.1173 22.5262 25.696 20.9474 25.696 19H22.1699ZM19.5829 19H16.0567C16.0567 20.9474 17.6355 22.5262 19.5829 22.5262V19ZM19.5829 6.89301H23.109C23.109 4.94557 21.5303 3.36686 19.5829 3.36686V6.89301ZM15.2989 6.89301H11.7727C11.7727 8.84045 13.3514 10.4192 15.2989 10.4192V6.89301ZM15.2989 4.51301V0.986849C13.3514 0.986849 11.7727 2.56556 11.7727 4.51301H15.2989ZM26.4539 4.51301H29.98C29.98 2.56556 28.4013 0.986849 26.4539 0.986849V4.51301ZM26.4539 6.89301V10.4192C28.4013 10.4192 29.98 8.84045 29.98 6.89301H26.4539ZM22.1699 6.89301V3.36686C20.2224 3.36686 18.6437 4.94557 18.6437 6.89301H22.1699ZM22.1699 19V15.4738H19.5829V19V22.5262H22.1699V19ZM19.5829 19H23.109V6.89301H19.5829H16.0567V19H19.5829ZM19.5829 6.89301V3.36686H15.2989V6.89301V10.4192H19.5829V6.89301ZM15.2989 6.89301H18.825V4.51301H15.2989H11.7727V6.89301H15.2989ZM15.2989 4.51301V8.03916H26.4539V4.51301V0.986849H15.2989V4.51301ZM26.4539 4.51301H22.9277V6.89301H26.4539H29.98V4.51301H26.4539ZM26.4539 6.89301V3.36686H22.1699V6.89301V10.4192H26.4539V6.89301ZM22.1699 6.89301H18.6437V19H22.1699H25.696V6.89301H22.1699ZM35.282 19.2483V15.7222C32.7455 15.7222 31.068 13.8939 31.068 11.7565H27.5418H24.0157C24.0157 17.9388 29.0022 22.7745 35.282 22.7745V19.2483ZM27.5418 11.7565H31.068C31.068 9.61909 32.7455 7.79081 35.282 7.79081V4.26466V0.738502C29.0022 0.738502 24.0157 5.57424 24.0157 11.7565H27.5418ZM35.282 4.26466V7.79081C37.8186 7.79081 39.4961 9.61909 39.4961 11.7565H43.0222H46.5484C46.5484 5.57424 41.5618 0.738502 35.282 0.738502V4.26466ZM43.0222 11.7565H39.4961C39.4961 13.8939 37.8186 15.7222 35.282 15.7222V19.2483V22.7745C41.5618 22.7745 46.5484 17.9388 46.5484 11.7565H43.0222ZM35.282 16.889V20.4152C40.0855 20.4152 43.9407 16.56 43.9407 11.7565H40.4146H36.8884C36.8884 12.6651 36.1906 13.3629 35.282 13.3629V16.889ZM40.4146 11.7565H43.9407C43.9407 6.95305 40.0855 3.09781 35.282 3.09781V6.62397V10.1501C36.1906 10.1501 36.8884 10.8479 36.8884 11.7565H40.4146ZM35.282 6.62397V3.09781C30.4786 3.09781 26.6233 6.95305 26.6233 11.7565H30.1495H33.6757C33.6757 10.8479 34.3735 10.1501 35.282 10.1501V6.62397ZM30.1495 11.7565H26.6233C26.6233 16.56 30.4786 20.4152 35.282 20.4152V16.889V13.3629C34.3735 13.3629 33.6757 12.6651 33.6757 11.7565H30.1495ZM48.6631 19V22.5262C50.6105 22.5262 52.1893 20.9474 52.1893 19H48.6631ZM46.0761 19H42.55C42.55 20.9474 44.1287 22.5262 46.0761 22.5262V19ZM46.0761 4.51301V0.986849C44.1287 0.986849 42.55 2.56556 42.55 4.51301H46.0761ZM48.6631 13.9709V10.4448C46.7157 10.4448 45.137 12.0235 45.137 13.9709H48.6631ZM48.6631 6.85162V3.32546C46.7157 3.32546 45.137 4.90418 45.137 6.85162H48.6631ZM48.6631 11.6323H45.137C45.137 13.5798 46.7157 15.1585 48.6631 15.1585V11.6323ZM48.6631 19V15.4738H46.0761V19V22.5262H48.6631V19ZM46.0761 19H49.6023V4.51301H46.0761H42.55V19H46.0761ZM46.0761 4.51301V8.03916H52.0158V4.51301V0.986849H46.0761V4.51301ZM52.0158 4.51301V8.03916C52.5804 8.03916 52.9306 8.23416 53.1259 8.42317C53.3214 8.61236 53.4566 8.88273 53.4566 9.25232H56.9828H60.5089C60.5089 4.54774 56.7301 0.986849 52.0158 0.986849V4.51301ZM56.9828 9.25232H53.4566C53.4566 9.61968 53.3233 9.88119 53.1336 10.0637C52.9422 10.2478 52.5907 10.4448 52.0158 10.4448V13.9709V17.4971C56.7095 17.4971 60.5089 13.9767 60.5089 9.25232H56.9828ZM52.0158 13.9709V10.4448H48.6631V13.9709V17.4971H52.0158V13.9709ZM48.6631 13.9709H45.137V19H48.6631H52.1893V13.9709H48.6631ZM48.6631 6.85162H45.137V11.6323H48.6631H52.1893V6.85162H48.6631ZM48.6631 11.6323V15.1585H51.9744V11.6323V8.10617H48.6631V11.6323ZM51.9744 11.6323V15.1585C55.2073 15.1585 57.922 12.5836 57.922 9.25232H54.3958H50.8697C50.8697 8.57013 51.432 8.10617 51.9744 8.10617V11.6323ZM54.3958 9.25232H57.922C57.922 5.9202 55.2274 3.32546 51.9744 3.32546V6.85162V10.3778C51.4119 10.3778 50.8697 9.894 50.8697 9.25232H54.3958ZM51.9744 6.85162V3.32546H48.6631V6.85162V10.3778H51.9744V6.85162Z" fill="#131313" mask="url(#path-4-outside-2_15611_99)"/>
<path d="M65.4651 1.98145C66.2553 1.98145 66.9899 2.0992 67.6965 2.36426H67.6975C68.3711 2.59904 68.9917 2.92308 69.4963 3.36914C69.9358 3.75764 70.2852 4.19275 70.5637 4.71191L70.679 4.93945L70.6799 4.94141C70.9467 5.53534 71.094 6.21678 71.094 6.95508C71.094 7.62989 71.0059 8.22182 70.8274 8.72852C70.6498 9.23258 70.3825 9.70698 70.0266 10.123C69.868 10.3109 69.7039 10.5519 69.5032 10.8076C69.3089 11.0552 69.0888 11.3053 68.843 11.4746C68.5983 11.6431 68.3346 11.7414 68.0686 11.832C67.8392 11.9102 67.6089 11.9842 67.3723 12.0908C67.8088 12.6684 68.1187 13.2384 68.4202 13.8018C68.7215 14.3648 69.0167 14.9192 69.427 15.4795C70.3135 14.4392 71.4263 12.7812 72.427 11.249C73.5978 9.45644 75.7297 8.59311 77.8225 9.03906C78.1719 9.11352 78.3413 9.51218 78.1526 9.81543L75.1897 14.5693L75.1907 14.5703L72.5012 18.9053H82.0061C82.8478 18.9053 83.6569 19.2332 84.262 19.8184L96.9006 32.04C97.1755 32.3056 97.557 32.4311 97.9358 32.3799L101.376 31.9141C102.149 31.8096 102.594 32.765 102.017 33.2891L95.5227 39.1865C95.0647 39.6024 94.3447 39.5187 93.9944 39.0088L84.3694 24.998C84.3631 25.1005 84.3559 25.2257 84.3469 25.3711C84.3195 25.817 84.2797 26.4547 84.2327 27.2227C84.1385 28.7589 84.0135 30.816 83.8879 32.8984C83.6367 37.0665 83.3861 41.3273 83.386 41.7344C83.386 41.7576 83.3996 41.7992 83.4563 41.8613C83.5115 41.9218 83.5959 41.9897 83.7102 42.0625C83.9382 42.2077 84.2637 42.3625 84.6467 42.5186C85.4114 42.83 86.3865 43.1387 87.2209 43.3828C87.417 43.4403 87.4855 43.6266 87.4651 43.7783C87.4446 43.9302 87.3287 44.0916 87.1233 44.0918H75.2571C74.7124 44.0917 74.3296 43.5553 74.5061 43.04L81.2981 23.2109L75.7454 23.2393L72.1331 23.5967C71.1823 23.6904 70.2267 23.4759 69.4075 22.9844L68.5022 22.4404C68.3213 22.6208 68.2088 22.7305 68.0442 22.8281C67.8662 22.9337 67.6294 23.0266 67.1819 23.2031L67.176 23.2061V23.2051C66.2118 23.5271 65.1886 23.7031 64.1077 23.7031C62.9435 23.7031 61.9193 23.557 61.009 23.2334H61.0081C60.1315 22.9114 59.397 22.4999 58.7786 21.9688C58.1574 21.4353 57.7141 20.7834 57.4192 20.0449C57.1249 19.3079 56.9778 18.5411 56.9778 17.6885C56.9778 16.1605 57.419 14.889 58.3049 13.8535C59.1569 12.8577 60.2553 12.0312 61.5959 11.3438C61.0283 10.6285 60.5883 9.96071 60.3079 9.31445C60.012 8.63268 59.8655 7.86487 59.8655 6.98438C59.8655 6.27395 60.0132 5.62129 60.2795 5.02832C60.5458 4.40646 60.9302 3.8734 61.4026 3.42969L61.4055 3.42773C61.9071 2.98432 62.4959 2.63 63.1711 2.36523C63.8517 2.09843 64.6176 1.98145 65.4651 1.98145ZM63.7278 14.1113C62.8886 14.6376 62.3034 15.1566 61.9827 15.7188L61.9807 15.7227C61.6165 16.3122 61.4495 16.9279 61.4495 17.5723C61.4495 18.3514 61.7255 18.9573 62.2493 19.4268C62.8051 19.8991 63.4713 20.1494 64.2815 20.1494C64.8957 20.1494 65.3651 20.0938 65.7991 19.9385C66.2099 19.7915 66.5946 19.5505 67.0461 19.1738L63.7278 14.1113ZM65.5227 5.44824C65.0584 5.44829 64.7131 5.58346 64.4192 5.87793C64.1245 6.17319 63.9612 6.57764 63.9612 7.04199C63.9612 7.45149 64.0667 7.84014 64.2786 8.20996L64.3752 8.36816L64.3772 8.37012C64.6457 8.80058 64.9928 9.20794 65.3958 9.61719C66.0357 9.23161 66.457 8.8272 66.6946 8.4043L66.6965 8.40137C66.9442 7.9878 67.0559 7.51649 67.0559 7.0127C67.0559 6.55048 66.8939 6.17452 66.5979 5.87793C66.3039 5.58341 65.9294 5.44824 65.5227 5.44824Z" fill="#FC3D20" stroke="#E31E00" stroke-width="0.226434"/>
</svg>
